<?xml version="1.0" encoding="UTF-8" standalone="no"?>
<svg width="97px" height="50px" viewBox="0 0 97 50" version="1.1" xmlns="http://www.w3.org/2000/svg" xmlns:xlink="http://www.w3.org/1999/xlink">
    <!-- Generator: Sketch 41.2 (35397) - http://www.bohemiancoding.com/sketch -->
    <title>logo_Biznet</title>
    <desc>Created with Sketch.</desc>
    <defs>
        <linearGradient x1="0.0599386245%" y1="49.9987087%" x2="100.0243%" y2="49.9987087%" id="linearGradient-1">
            <stop stop-color="#F5A31D" offset="16.99%"></stop>
            <stop stop-color="#F39A1F" offset="26.2%"></stop>
            <stop stop-color="#EF8522" offset="42.69%"></stop>
            <stop stop-color="#E95F24" offset="64.4%"></stop>
            <stop stop-color="#E64325" offset="76.24%"></stop>
        </linearGradient>
        <linearGradient x1="103.595936%" y1="89.4455421%" x2="25.3096234%" y2="10.7949636%" id="linearGradient-2">
            <stop stop-color="#FBC311" offset="0%"></stop>
            <stop stop-color="#F9BA16" offset="9.227974%"></stop>
            <stop stop-color="#F5A41D" offset="25.75%"></stop>
            <stop stop-color="#EF8122" offset="47.53%"></stop>
            <stop stop-color="#EF8022" offset="48.04%"></stop>
            <stop stop-color="#ED7823" offset="60.23%"></stop>
            <stop stop-color="#E95F24" offset="81.96%"></stop>
            <stop stop-color="#E64325" offset="100%"></stop>
        </linearGradient>
        <linearGradient x1="49.782909%" y1="-1.55136664%" x2="49.782909%" y2="106.83968%" id="linearGradient-3">
            <stop stop-color="#F5A31D" offset="16.99%"></stop>
            <stop stop-color="#F39A1F" offset="26.2%"></stop>
            <stop stop-color="#EF8522" offset="42.69%"></stop>
            <stop stop-color="#E95F24" offset="64.4%"></stop>
            <stop stop-color="#E64325" offset="76.24%"></stop>
        </linearGradient>
        <radialGradient cx="8.29684944%" cy="96.0353921%" fx="8.29684944%" fy="96.0353921%" r="129.479805%" id="radialGradient-4">
            <stop stop-color="#FBC311" offset="0.089684%"></stop>
            <stop stop-color="#F9B717" offset="14.12%"></stop>
            <stop stop-color="#F3991F" offset="41.42%"></stop>
            <stop stop-color="#EF8022" offset="62.21%"></stop>
            <stop stop-color="#ED7423" offset="67.67%"></stop>
            <stop stop-color="#E75225" offset="78.32%"></stop>
            <stop stop-color="#E64325" offset="81.76%"></stop>
            <stop stop-color="#E64325" offset="100%"></stop>
        </radialGradient>
    </defs>
    <g id="Symbols" stroke="none" stroke-width="1" fill="none" fill-rule="evenodd">
        <g id="Header" transform="translate(-52.000000, -44.000000)">
            <g id="Header-Home">
                <g id="logo_Biznet" transform="translate(52.000000, 44.000000)">
                    <g id="Layer_1">
                        <g id="Group">
                            <g transform="translate(47.139114, 27.419355)" id="Shape" fill="#E64325">
                                <path d="M0.107746547,0.564516129 C0.107746547,0.349462366 0.296303004,0.161290323 0.511796098,0.161290323 C0.727289192,0.161290323 0.915845649,0.349462366 0.915845649,0.564516129 L0.915845649,5.32258065 L8.00018111,5.32258065 L8.00018111,0.564516129 C8.00018111,0.349462366 8.18873756,0.161290323 8.40423066,0.161290323 C8.61972375,0.161290323 8.80828021,0.349462366 8.80828021,0.564516129 L8.80828021,10.9139785 C8.80828021,11.1290323 8.61972375,11.3172043 8.40423066,11.3172043 C8.18873756,11.3172043 8.00018111,11.1290323 8.00018111,10.9139785 L8.00018111,6.07526882 L0.915845649,6.07526882 L0.915845649,10.9139785 C0.915845649,11.1290323 0.727289192,11.3172043 0.511796098,11.3172043 C0.296303004,11.3172043 0.107746547,11.1290323 0.107746547,10.9139785 L0.107746547,0.564516129 L0.107746547,0.564516129 Z"></path>
                                <path d="M10.6399715,7.28494624 L10.6399715,7.25806452 C10.6399715,5 12.3908529,3.03763441 14.8151502,3.03763441 C17.2125109,3.03763441 18.9364556,4.97311828 18.9364556,7.2311828 L18.9364556,7.25806452 C18.9364556,9.51612903 17.1855742,11.4784946 14.7612769,11.4784946 C12.3639163,11.4516129 10.6399715,9.54301075 10.6399715,7.28494624 L10.6399715,7.28494624 Z M18.0744832,7.28494624 L18.0744832,7.25806452 C18.0744832,5.32258065 16.6199049,3.76344086 14.7612769,3.76344086 C12.8487757,3.76344086 11.4750072,5.32258065 11.4750072,7.2311828 L11.4750072,7.25806452 C11.4750072,9.19354839 12.9295856,10.7526882 14.7882136,10.7526882 C16.7007148,10.7258065 18.0744832,9.16666667 18.0744832,7.28494624 L18.0744832,7.28494624 Z"></path>
                                <path d="M20.5257172,3.5483871 C20.5257172,3.33333333 20.687337,3.14516129 20.9028301,3.14516129 C21.1183232,3.14516129 21.3068796,3.30645161 21.3068796,3.5483871 L21.3068796,4.65053763 C21.8186757,3.8172043 22.5459649,3.01075269 24.0005433,3.01075269 C25.4012484,3.01075269 26.2901574,3.8172043 26.7211436,4.75806452 C27.2329397,3.87096774 28.1218487,3.01075269 29.6303004,3.01075269 C31.5428016,3.01075269 32.7280136,4.35483871 32.7280136,6.37096774 L32.7280136,10.9139785 C32.7280136,11.155914 32.5663938,11.3172043 32.3509007,11.3172043 C32.1354076,11.3172043 31.9468512,11.155914 31.9468512,10.9139785 L31.9468512,6.4516129 C31.9468512,4.70430108 31.0579421,3.70967742 29.5494905,3.70967742 C28.175722,3.70967742 26.99051,4.75806452 26.99051,6.55913978 L26.99051,10.9139785 C26.99051,11.155914 26.8288902,11.3172043 26.6133971,11.3172043 C26.397904,11.3172043 26.2093475,11.155914 26.2093475,10.9139785 L26.2093475,6.42473118 C26.2093475,4.75806452 25.2935019,3.73655914 23.8389235,3.73655914 C22.4112818,3.73655914 21.2530064,5 21.2530064,6.63978495 L21.2530064,10.9408602 C21.2530064,11.1827957 21.0913866,11.344086 20.8758935,11.344086 C20.6604004,11.344086 20.4718439,11.1827957 20.4718439,10.9408602 L20.4718439,3.5483871 L20.5257172,3.5483871 Z"></path>
                                <path d="M34.2095286,7.25806452 L34.2095286,7.2311828 C34.2095286,4.89247312 35.8526635,3.03763441 38.0345311,3.03763441 C40.2972085,3.03763441 41.7248503,4.89247312 41.7248503,7.20430108 C41.7248503,7.39247312 41.5362938,7.58064516 41.3477374,7.58064516 L35.0176277,7.58064516 C35.1523109,9.59677419 36.6068893,10.7526882 38.1692142,10.7526882 C39.3274896,10.7526882 40.1355887,10.2688172 40.782068,9.65053763 C40.8359413,9.59677419 40.9167512,9.51612903 41.0244977,9.51612903 C41.2130542,9.51612903 41.4016106,9.70430108 41.4016106,9.89247312 C41.4016106,9.97311828 41.374674,10.0537634 41.2938641,10.1344086 C40.5127016,10.9139785 39.5699193,11.4784946 38.115341,11.4784946 C36.0681566,11.4516129 34.2095286,9.75806452 34.2095286,7.25806452 L34.2095286,7.25806452 Z M40.9167512,6.85483871 C40.8090046,5.21505376 39.8662224,3.73655914 38.0075944,3.73655914 C36.4183329,3.73655914 35.1792476,5.08064516 35.0445644,6.85483871 L40.9167512,6.85483871 L40.9167512,6.85483871 Z"></path>
                            </g>
                            <g id="Shape">
                                <g>
                                    <path d="M26.0477277,0.967741935 C15.7040592,-2.71505376 7.67694147,8.44086022 7.16514537,17.2043011 C8.53891384,7.47311828 18.9364556,3.22580645 24.5123394,5.34946237 C25.9399812,5.88709677 27.0982565,7.04301075 26.8019535,8.76344086 C26.7211436,9.32795699 26.397904,9.89247312 25.9938544,10.483871 C25.9938544,10.5107527 32.0276611,3.11827957 26.0477277,0.967741935 L26.0477277,0.967741935 Z" fill="url(#linearGradient-1)"></path>
                                    <path d="M12.5794093,47.7956989 C6.19542645,44.4623656 7.00352555,27.2311828 7.00352555,20.483871 C7.00352555,19.327957 7.05739882,18.2258065 7.16514537,17.2043011 C7.62306819,9.43548387 13.9801145,-0.241935484 22.6267748,0.268817204 C21.7648025,0.215053763 20.8758935,0.188172043 19.9331112,0.268817204 C17.5626871,0.456989247 11.2864508,1.69354839 6.41091954,6.29032258 C1.34683184,11.1021505 1.1778703e-12,18.1182796 0.0538732734,25.7795699 C0.215493094,44.327957 8.70053366,47.3655914 12.3908529,48.2795699 C12.4177895,48.2795699 12.4447262,48.3064516 12.4716628,48.3064516 C12.606346,48.3064516 12.7410292,48.1989247 12.7410292,48.0376344 C12.7410292,47.9301075 12.6871559,47.8494624 12.5794093,47.7956989 L12.5794093,47.7956989 Z" fill="url(#linearGradient-2)"></path>
                                    <path d="M35.5024872,27.8494624 C30.3037163,23.172043 27.2329397,21.8010753 27.0443833,19.0322581 C26.9097001,16.9892473 28.472025,15.8064516 30.2767797,13.1451613 C33.4553028,8.44086022 31.5697382,3.33333333 26.6133971,1.20967742 C31.6505482,3.60215054 26.0207911,10.5107527 26.0207911,10.5107527 C26.0477277,10.483871 26.0746643,10.4301075 26.101601,10.4032258 C24.2968463,12.983871 20.1486043,16.4784946 20.98364,20.0537634 C22.3304718,25.9139785 31.1656887,23.172043 37.3341785,29.7311828 C36.4991428,28.7903226 35.8796001,28.172043 35.5024872,27.8494624 L35.5024872,27.8494624 Z" fill="url(#linearGradient-3)"></path>
                                    <path d="M20.9567034,20.0268817 C20.9028301,19.811828 20.8758935,19.5967742 20.8758935,19.4086022 C20.98364,24.4354839 24.2429731,26.3709677 29.4148073,30.2419355 C34.9906911,34.4354839 35.8526635,47.4193548 15.5424394,48.3064516 C15.4077562,48.3064516 15.2461364,48.3333333 15.0845166,48.3333333 C14.8151502,48.3602151 14.7343403,48.7903226 15.0845166,48.8709677 C20.4179706,50.188172 31.1118154,50.8333333 36.9031923,45.4032258 C41.078371,41.4247312 41.5632305,34.8924731 37.1725587,29.5967742 C31.0040689,23.172043 22.3035352,25.8333333 20.9567034,20.0268817 Z" fill="url(#radialGradient-4)"></path>
                                </g>
                                <path d="M27.2329397,8.38709677 C27.1790665,8.46774194 27.1251932,8.5483871 27.0443833,8.62903226 C27.0982565,8.5483871 27.1790665,8.46774194 27.2329397,8.38709677 L27.2329397,8.38709677 Z M27.3406863,8.22580645 C27.3137496,8.27956989 27.2598764,8.33333333 27.2329397,8.38709677 C27.2598764,8.33333333 27.3137496,8.27956989 27.3406863,8.22580645 L27.3406863,8.22580645 Z M21.1721965,21.9892473 C21.1721965,22.016129 21.1991331,22.0430108 21.1991331,22.0698925 C21.1991331,22.0430108 21.1991331,22.016129 21.1721965,21.9892473 L21.1721965,21.9892473 Z"></path>
                            </g>
                            <g transform="translate(47.139114, 10.752688)" id="Shape" fill="#2C296C">
                                <g>
                                    <path d="M0.0808099102,1.34408602 C0.0808099102,0.725806452 0.565669371,0.268817204 1.15827538,0.268817204 L5.5758838,0.268817204 C6.97658891,0.268817204 8.08099102,0.64516129 8.78134357,1.34408602 C9.32007631,1.88172043 9.61637931,2.55376344 9.61637931,3.36021505 L9.61637931,3.38709677 C9.61637931,4.8655914 8.78134357,5.64516129 7.86549792,6.10215054 C9.29313967,6.58602151 10.2897952,7.41935484 10.2897952,9.08602151 L10.2897952,9.13978495 C10.2897952,11.3172043 8.48504057,12.5 5.76444026,12.5 L1.18521202,12.5 C0.565669371,12.5 0.107746547,12.016129 0.107746547,11.4247312 L0.107746547,1.34408602 L0.0808099102,1.34408602 Z M5.14489761,5.43010753 C6.51866609,5.43010753 7.46144837,4.89247312 7.46144837,3.76344086 L7.46144837,3.73655914 C7.46144837,2.7688172 6.68028591,2.17741935 5.30651743,2.17741935 L2.20880421,2.17741935 L2.20880421,5.43010753 L5.14489761,5.43010753 L5.14489761,5.43010753 Z M5.76444026,10.5913978 C7.24595528,10.5913978 8.13486429,10.0268817 8.13486429,8.92473118 L8.13486429,8.89784946 C8.13486429,7.87634409 7.29982855,7.25806452 5.60282044,7.25806452 L2.18186757,7.25806452 L2.18186757,10.6182796 L5.76444026,10.6182796 L5.76444026,10.5913978 Z"></path>
                                    <path d="M11.5288805,1.23655914 C11.5288805,0.64516129 12.0406766,0.241935484 12.6871559,0.241935484 C13.3336352,0.241935484 13.8454313,0.61827957 13.8454313,1.23655914 L13.8454313,1.34408602 C13.8454313,1.93548387 13.3336352,2.3655914 12.6871559,2.3655914 C12.0406766,2.3655914 11.5288805,1.96236559 11.5288805,1.34408602 L11.5288805,1.23655914 L11.5288805,1.23655914 Z M11.6635637,4.54301075 C11.6635637,3.97849462 12.0945499,3.52150538 12.6871559,3.52150538 C13.2528253,3.52150538 13.7107481,3.97849462 13.7107481,4.54301075 L13.7107481,11.5591398 C13.7107481,12.1236559 13.2528253,12.5537634 12.6871559,12.5537634 C12.1214865,12.5537634 11.6635637,12.1236559 11.6635637,11.5591398 L11.6635637,4.54301075 L11.6635637,4.54301075 Z"></path>
                                    <path d="M15.0845166,11.6666667 L15.0845166,11.6397849 C15.0845166,11.2634409 15.2191997,10.9946237 15.5424394,10.672043 L20.2832875,5.29569892 L16.0811721,5.29569892 C15.6232493,5.29569892 15.2461364,4.91935484 15.2461364,4.46236559 C15.2461364,3.97849462 15.6232493,3.62903226 16.0811721,3.62903226 L21.9533589,3.62903226 C22.5190283,3.62903226 22.9230779,3.9516129 22.9230779,4.43548387 L22.9230779,4.48924731 C22.9230779,4.8655914 22.7883947,5.1344086 22.4920917,5.45698925 L17.7512436,10.8333333 L22.0880421,10.8333333 C22.5729016,10.8333333 22.9230779,11.2096774 22.9230779,11.6666667 C22.9230779,12.1236559 22.5459649,12.5 22.0880421,12.5 L16.0542355,12.5 C15.4885661,12.5 15.0845166,12.1774194 15.0845166,11.6666667 L15.0845166,11.6666667 Z"></path>
                                    <path d="M24.1082899,4.54301075 C24.1082899,3.97849462 24.5392761,3.52150538 25.1318821,3.52150538 C25.6975514,3.52150538 26.1554743,3.97849462 26.1554743,4.54301075 L26.1554743,5 C26.7211436,4.16666667 27.5561794,3.44086022 28.9299478,3.44086022 C30.923259,3.44086022 32.108471,4.78494624 32.108471,6.85483871 L32.108471,11.5860215 C32.108471,12.1505376 31.6505482,12.5806452 31.0848788,12.5806452 C30.5192094,12.5806452 30.0612866,12.1505376 30.0612866,11.5860215 L30.0612866,7.47311828 C30.0612866,6.10215054 29.360934,5.29569892 28.1487854,5.29569892 C26.9635734,5.29569892 26.1554743,6.12903226 26.1554743,7.5 L26.1554743,11.5860215 C26.1554743,12.1505376 25.6975514,12.5806452 25.1318821,12.5806452 C24.5662127,12.5806452 24.1082899,12.1505376 24.1082899,11.5860215 L24.1082899,4.54301075 L24.1082899,4.54301075 Z"></path>
                                    <path d="M33.2128731,8.09139785 L33.2128731,8.06451613 C33.2128731,5.53763441 35.0176277,3.44086022 37.5496716,3.44086022 C40.3780184,3.44086022 41.7787236,5.75268817 41.7787236,7.79569892 C41.7787236,8.36021505 41.3477374,8.76344086 40.8090046,8.76344086 L35.2331208,8.76344086 C35.4486139,10.2150538 36.4722061,11.0215054 37.7921013,11.0215054 C38.6540737,11.0215054 39.3274896,10.7258065 39.893159,10.2419355 C40.0009055,10.1612903 40.189462,10.0537634 40.4049551,10.0537634 C40.8628779,10.0537634 41.2130542,10.4301075 41.2130542,10.8870968 C41.2130542,11.1290323 41.1053076,11.3709677 40.9436878,11.4784946 C40.1355887,12.2043011 39.1119965,12.6612903 37.738228,12.6612903 C35.2061842,12.7150538 33.2128731,10.8333333 33.2128731,8.09139785 L33.2128731,8.09139785 Z M39.8123491,7.44623656 C39.6776659,6.12903226 38.8965034,5.10752688 37.5496716,5.10752688 C36.3105863,5.10752688 35.4216773,6.07526882 35.2331208,7.44623656 L39.8123491,7.44623656 L39.8123491,7.44623656 Z"></path>
                                    <path d="M43.448795,10.0537634 L43.448795,5.37634409 L43.1255554,5.37634409 C42.6406959,5.37634409 42.263583,5 42.263583,4.51612903 C42.263583,4.03225806 42.6406959,3.65591398 43.1255554,3.65591398 L43.448795,3.65591398 L43.448795,2.15053763 C43.448795,1.58602151 43.9067179,1.12903226 44.4723872,1.12903226 C45.0380566,1.12903226 45.4959794,1.58602151 45.4959794,2.15053763 L45.4959794,3.65591398 L47.085241,3.65591398 C47.5701005,3.65591398 47.9472134,4.03225806 47.9472134,4.51612903 C47.9472134,5 47.5701005,5.37634409 47.085241,5.37634409 L45.4959794,5.37634409 L45.4959794,9.7311828 C45.4959794,10.5107527 45.900029,10.8333333 46.6003815,10.8333333 C46.8428113,10.8333333 47.0313677,10.7795699 47.1121776,10.7795699 C47.5701005,10.7795699 47.97415,11.155914 47.97415,11.6129032 C47.97415,11.9892473 47.7317203,12.2849462 47.4354173,12.3924731 C47.0044311,12.5537634 46.5734449,12.6344086 46.0347122,12.6344086 C44.5262605,12.6612903 43.448795,11.9892473 43.448795,10.0537634 L43.448795,10.0537634 Z"></path>
                                </g>
                                <g transform="translate(46.869748, 0.000000)">
                                    <path d="M0.188556457,1.0483871 L0.188556457,1.0483871 C0.188556457,0.537634409 0.619542645,0.0806451613 1.15827538,0.0806451613 C1.69700811,0.0806451613 2.10105766,0.510752688 2.10105766,1.02150538 L2.10105766,1.02150538 C2.10105766,1.53225806 1.67007148,1.96236559 1.13133874,1.96236559 C0.619542645,1.98924731 0.188556457,1.55913978 0.188556457,1.0483871 L0.188556457,1.0483871 Z M1.96637448,1.0483871 L1.96637448,1.0483871 C1.96637448,0.591397849 1.6161982,0.241935484 1.15827538,0.241935484 C0.700352555,0.241935484 0.350176277,0.61827957 0.350176277,1.0483871 L0.350176277,1.0483871 C0.350176277,1.50537634 0.700352555,1.85483871 1.15827538,1.85483871 C1.6161982,1.85483871 1.96637448,1.47849462 1.96637448,1.0483871 L1.96637448,1.0483871 Z"></path>
                                    <path d="M0.754225828,0.61827957 C0.754225828,0.564516129 0.808099102,0.510752688 0.861972375,0.510752688 L1.21214865,0.510752688 C1.34683184,0.510752688 1.45457838,0.537634409 1.50845166,0.61827957 C1.56232493,0.672043011 1.58926157,0.752688172 1.58926157,0.833333333 L1.58926157,0.833333333 C1.58926157,0.994623656 1.50845166,1.07526882 1.37376847,1.12903226 L1.56232493,1.37096774 C1.58926157,1.39784946 1.58926157,1.39784946 1.58926157,1.42473118 C1.58926157,1.47849462 1.53538829,1.50537634 1.50845166,1.50537634 C1.48151502,1.50537634 1.45457838,1.50537634 1.42764175,1.4516129 L1.18521202,1.12903226 L1.18521202,1.12903226 L0.969718922,1.12903226 L0.969718922,1.39784946 C0.969718922,1.4516129 0.915845649,1.50537634 0.861972375,1.50537634 C0.808099102,1.50537634 0.754225828,1.4516129 0.754225828,1.39784946 L0.754225828,0.61827957 L0.754225828,0.61827957 Z M1.21214865,0.994623656 C1.34683184,0.994623656 1.40070511,0.940860215 1.40070511,0.833333333 L1.40070511,0.833333333 C1.40070511,0.725806452 1.3198952,0.672043011 1.21214865,0.672043011 L0.969718922,0.672043011 L0.969718922,0.994623656 L1.21214865,0.994623656 L1.21214865,0.994623656 Z"></path>
                                </g>
                            </g>
                        </g>
                    </g>
                </g>
            </g>
        </g>
    </g>
</svg>